<mxfile host="app.diagrams.net" modified="2023-10-19T11:47:32.997Z" agent="Mozilla/5.0 (Windows NT 10.0; Win64; x64) AppleWebKit/537.36 (KHTML, like Gecko) Chrome/118.0.0.0 Safari/537.36" etag="yTP3ZwSuUlhYkFwskfPg" version="22.0.5" type="github">
  <diagram name="Page-1" id="jhwDJUy9_16bghSyqaBN">
    <mxGraphModel dx="1195" dy="632" grid="1" gridSize="10" guides="1" tooltips="1" connect="1" arrows="1" fold="1" page="1" pageScale="1" pageWidth="827" pageHeight="1169" math="0" shadow="0">
      <root>
        <mxCell id="0" />
        <mxCell id="1" parent="0" />
        <mxCell id="xKYYk5PtYXINbMjCG61--31" value="" style="rounded=0;whiteSpace=wrap;html=1;" vertex="1" parent="1">
          <mxGeometry x="230" y="90" width="350" height="420" as="geometry" />
        </mxCell>
        <mxCell id="xKYYk5PtYXINbMjCG61--17" value="" style="rounded=0;whiteSpace=wrap;html=1;" vertex="1" parent="1">
          <mxGeometry x="240" y="100" width="330" height="330" as="geometry" />
        </mxCell>
        <mxCell id="xKYYk5PtYXINbMjCG61--8" value="" style="rounded=0;whiteSpace=wrap;html=1;" vertex="1" parent="1">
          <mxGeometry x="240" y="100" width="330" height="260" as="geometry" />
        </mxCell>
        <mxCell id="xKYYk5PtYXINbMjCG61--1" value="" style="rounded=1;whiteSpace=wrap;html=1;" vertex="1" parent="1">
          <mxGeometry x="245" y="110" width="240" height="80" as="geometry" />
        </mxCell>
        <mxCell id="xKYYk5PtYXINbMjCG61--2" value="&lt;b&gt;Domain&lt;br/&gt;Driven Design&amp;nbsp;&lt;/b&gt;" style="text;html=1;strokeColor=none;fillColor=none;align=center;verticalAlign=middle;whiteSpace=wrap;rounded=0;" vertex="1" parent="1">
          <mxGeometry x="220" y="110" width="290" height="30" as="geometry" />
        </mxCell>
        <mxCell id="xKYYk5PtYXINbMjCG61--5" value="Bounded Context, Ubiquitous Language, Entities, Value Objects, Aggregates" style="text;html=1;strokeColor=none;fillColor=none;align=center;verticalAlign=middle;whiteSpace=wrap;rounded=0;" vertex="1" parent="1">
          <mxGeometry x="240" y="120" width="250" height="80" as="geometry" />
        </mxCell>
        <mxCell id="xKYYk5PtYXINbMjCG61--6" value="&lt;b&gt;Command Query Responsibility Segregation&lt;/b&gt;" style="rounded=1;whiteSpace=wrap;html=1;" vertex="1" parent="1">
          <mxGeometry x="245" y="200" width="240" height="70" as="geometry" />
        </mxCell>
        <mxCell id="xKYYk5PtYXINbMjCG61--7" value="&lt;b&gt;Event sourcing&lt;/b&gt;" style="rounded=1;whiteSpace=wrap;html=1;" vertex="1" parent="1">
          <mxGeometry x="245" y="280" width="240" height="70" as="geometry" />
        </mxCell>
        <mxCell id="xKYYk5PtYXINbMjCG61--9" value="&lt;b&gt;Test Driven Development&lt;/b&gt;" style="rounded=1;whiteSpace=wrap;html=1;rotation=-90;" vertex="1" parent="1">
          <mxGeometry x="405" y="195" width="240" height="70" as="geometry" />
        </mxCell>
        <mxCell id="xKYYk5PtYXINbMjCG61--23" value="" style="rounded=0;whiteSpace=wrap;html=1;" vertex="1" parent="1">
          <mxGeometry x="240" y="430" width="330" height="70" as="geometry" />
        </mxCell>
        <mxCell id="xKYYk5PtYXINbMjCG61--24" value="" style="shape=image;html=1;verticalAlign=top;verticalLabelPosition=bottom;labelBackgroundColor=#ffffff;imageAspect=0;aspect=fixed;image=https://cdn2.iconfinder.com/data/icons/seo-flat-6/128/06_Case_Study-128.png" vertex="1" parent="1">
          <mxGeometry x="290" y="435" width="60" height="60" as="geometry" />
        </mxCell>
        <mxCell id="xKYYk5PtYXINbMjCG61--27" value="" style="image;aspect=fixed;html=1;points=[];align=center;fontSize=12;image=img/lib/azure2/other/Web_App_Database.svg;" vertex="1" parent="1">
          <mxGeometry x="496" y="367" width="58" height="58" as="geometry" />
        </mxCell>
        <mxCell id="xKYYk5PtYXINbMjCG61--28" value="&lt;b style=&quot;border-color: var(--border-color);&quot;&gt;Cloud Native Application with Database&lt;/b&gt;" style="text;html=1;strokeColor=none;fillColor=none;align=center;verticalAlign=middle;whiteSpace=wrap;rounded=0;" vertex="1" parent="1">
          <mxGeometry x="240" y="381" width="260" height="30" as="geometry" />
        </mxCell>
        <mxCell id="xKYYk5PtYXINbMjCG61--30" value="&lt;b style=&quot;border-color: var(--border-color);&quot;&gt;Case Study Methodology&lt;/b&gt;" style="text;html=1;strokeColor=none;fillColor=none;align=center;verticalAlign=middle;whiteSpace=wrap;rounded=0;" vertex="1" parent="1">
          <mxGeometry x="321" y="450" width="175" height="30" as="geometry" />
        </mxCell>
      </root>
    </mxGraphModel>
  </diagram>
</mxfile>
